<svg width="390" height="44" viewBox="0 0 390 44" fill="none" xmlns="http://www.w3.org/2000/svg">
<mask id="mask0_1_101" style="mask-type:luminance" maskUnits="userSpaceOnUse" x="0" y="0" width="390" height="44">
<path d="M0 0V44H390V0H0Z" fill="white"/>
</mask>
<g mask="url(#mask0_1_101)">
<path fill-rule="evenodd" clip-rule="evenodd" d="M372.32 20.5C372.32 19.1193 371.201 18 369.82 18H351.94C350.559 18 349.44 19.1193 349.44 20.5V26C349.44 27.3807 350.559 28.5 351.94 28.5H368.647H369.82C371.201 28.5 372.32 27.3807 372.32 26V20.5ZM371.28 21C371.28 19.8954 370.385 19 369.28 19H352.48C351.375 19 350.48 19.8954 350.48 21V25.5C350.48 26.6046 351.375 27.5 352.48 27.5H367.607H369.28C370.385 27.5 371.28 26.6046 371.28 25.5V21Z" fill="white"/>
<path fill-rule="evenodd" clip-rule="evenodd" d="M373.36 25.374C374.257 25.152 374.92 24.3689 374.92 23.437C374.92 22.5051 374.257 21.722 373.36 21.5V25.374Z" fill="white"/>
<path d="M352.52 20C351.968 20 351.52 20.4477 351.52 21V25.5C351.52 26.0523 351.968 26.5 352.52 26.5H369.24C369.792 26.5 370.24 26.0523 370.24 25.5V21C370.24 20.4477 369.792 20 369.24 20H352.52Z" fill="white"/>
<path fill-rule="evenodd" clip-rule="evenodd" d="M342.454 21.9863C342.58 22.1042 342.781 22.1027 342.905 21.983L344.107 20.8163C344.17 20.7556 344.205 20.6734 344.205 20.5878C344.204 20.5022 344.168 20.4204 344.105 20.3603C339.721 16.3208 332.805 16.3208 328.421 20.3603C328.358 20.4203 328.322 20.5021 328.321 20.5877C328.321 20.6733 328.356 20.7556 328.418 20.8163L329.621 21.983C329.745 22.1029 329.946 22.1044 330.072 21.9863C331.742 20.4594 333.959 19.608 336.263 19.608C338.568 19.6081 340.784 20.4595 342.454 21.9863ZM339.689 24.6734C339.816 24.7894 340.016 24.7868 340.14 24.6677L341.341 23.501C341.404 23.4398 341.439 23.3568 341.438 23.2706C341.437 23.1843 341.4 23.102 341.336 23.042C338.478 20.4857 334.052 20.4857 331.193 23.042C331.129 23.102 331.092 23.1843 331.091 23.2706C331.09 23.3569 331.126 23.4399 331.189 23.501L332.389 24.6677C332.513 24.7868 332.713 24.7894 332.84 24.6734C333.778 23.8567 334.998 23.4042 336.263 23.4037C337.53 23.4036 338.751 23.8562 339.689 24.6734ZM338.561 25.731C338.628 25.7891 338.667 25.871 338.669 25.9575C338.671 26.044 338.635 26.1274 338.571 26.188L336.494 28.2037C336.433 28.2629 336.35 28.2963 336.263 28.2963C336.177 28.2963 336.094 28.2629 336.033 28.2037L333.955 26.188C333.891 26.1274 333.856 26.044 333.858 25.9575C333.86 25.8709 333.899 25.789 333.965 25.731C335.292 24.6522 337.235 24.6522 338.561 25.731Z" fill="white"/>
<path fill-rule="evenodd" clip-rule="evenodd" d="M323.093 18.6666C323.093 18.1143 322.627 17.6666 322.053 17.6666H321.013C320.439 17.6666 319.973 18.1143 319.973 18.6666V27.3333C319.973 27.8856 320.439 28.3333 321.013 28.3333H322.053C322.627 28.3333 323.093 27.8856 323.093 27.3333V18.6666ZM317.2 20C317.774 20 318.24 20.4477 318.24 21V27.3333C318.24 27.8856 317.774 28.3333 317.2 28.3333H316.16C315.585 28.3333 315.12 27.8856 315.12 27.3333V21C315.12 20.4477 315.585 20 316.16 20H317.2ZM313.386 23.3333C313.386 22.781 312.921 22.3333 312.346 22.3333H311.306C310.732 22.3333 310.266 22.781 310.266 23.3333V27.3333C310.266 27.8855 310.732 28.3333 311.306 28.3333H312.346C312.921 28.3333 313.386 27.8855 313.386 27.3333V23.3333ZM308.533 25.3333C308.533 24.781 308.067 24.3333 307.493 24.3333H306.453C305.879 24.3333 305.413 24.781 305.413 25.3333V27.3333C305.413 27.8855 305.879 28.3333 306.453 28.3333H307.493C308.067 28.3333 308.533 27.8855 308.533 27.3333V25.3333Z" fill="white"/>
</g>
<g clip-path="url(#clip0_1_101)">
<mask id="mask1_1_101" style="mask-type:luminance" maskUnits="userSpaceOnUse" x="21" y="14" width="57" height="18">
<path d="M21.8398 14V32H77.9998V14H21.8398Z" fill="white"/>
</mask>
<g mask="url(#mask1_1_101)">
<path d="M40.321 17.248C42.6501 17.248 44.591 18.8813 44.591 22.5874V22.6021C44.591 26.0957 42.9724 28.1831 40.2771 28.1831C38.3215 28.1831 36.8567 27.0552 36.5271 25.4585L36.5124 25.3779H38.3874L38.4094 25.4438C38.695 26.1689 39.3396 26.6377 40.2844 26.6377C41.9836 26.6377 42.6941 25.0117 42.7673 23.0122C42.7746 22.9023 42.782 22.7925 42.782 22.6753H42.738C42.3205 23.6421 41.2658 24.3745 39.8376 24.3745C37.8015 24.3745 36.3659 22.9097 36.3659 20.9248V20.9102C36.3659 18.7788 38.0432 17.248 40.321 17.248ZM40.321 22.917C41.5295 22.917 42.4524 22.0674 42.4524 20.8882V20.8809C42.4524 19.709 41.5295 18.7935 40.343 18.7935C39.1711 18.7935 38.2263 19.7017 38.2263 20.8442V20.8589C38.2263 22.0601 39.1198 22.917 40.321 22.917ZM46.6494 21.0859C46.0562 21.0859 45.5874 20.6172 45.5874 20.0239C45.5874 19.4307 46.0562 18.9692 46.6494 18.9692C47.2427 18.9692 47.7041 19.4307 47.7041 20.0239C47.7041 20.6172 47.2427 21.0859 46.6494 21.0859ZM46.6494 26.4619C46.0562 26.4619 45.5874 25.9932 45.5874 25.3999C45.5874 24.8066 46.0562 24.3452 46.6494 24.3452C47.2427 24.3452 47.7041 24.8066 47.7041 25.3999C47.7041 25.9932 47.2427 26.4619 46.6494 26.4619ZM53.9007 28V25.9712H48.6273V24.3599L53.0145 17.4312H55.7025V24.4185H57.138V25.9712H55.7025V28H53.9007ZM50.3265 24.4624H53.93V18.8594H53.8861L50.3265 24.4111V24.4624ZM60.6686 28V19.2329H60.6246L57.8927 21.1079V19.3721L60.6539 17.4312H62.5216V28H60.6686Z" fill="white"/>
</g>
</g>
<defs>
<clipPath id="clip0_1_101">
<rect width="56.16" height="18" fill="white" transform="translate(21.8398 14)"/>
</clipPath>
</defs>
</svg>
